<svg width="218" height="144" viewBox="0 0 218 144" fill="none" xmlns="http://www.w3.org/2000/svg">
<path d="M173.452 86.3777L173.027 90.4337C171.921 93.0754 170.816 95.7154 169.712 98.3537C169.327 99.2801 168.94 100.205 168.551 101.128C168.374 101.56 168.124 101.958 167.812 102.304C167.796 102.327 167.776 102.347 167.751 102.361C167.727 102.375 167.7 102.384 167.672 102.386C167.579 102.386 167.545 102.261 167.538 102.167C167.485 101.167 167.366 100.171 167.18 99.1865C166.146 94.4321 160.626 92.6897 156.296 92.7977C154.564 92.8241 152.858 93.2194 151.29 93.9569C149.029 95.0513 148.148 98.0945 148.028 98.2073L147.932 98.5985L146.382 105.057C146.056 106.497 145.806 107.258 144.476 107.642C144.433 107.656 143.108 108.362 143.065 108.362C142.552 108.506 143.958 108.196 143.401 108.103L141.637 107.827L140.886 107.654L129.925 105.059C130.35 105.131 130.784 105.211 131.226 105.299L133.77 105.907L133.098 102.681C131.348 92.6393 134.248 83.5289 139.187 78.5825C140.488 77.2817 141.133 76.9481 142.65 76.0817L143.502 78.1001C143.502 78.1001 152.219 80.6993 154.273 72.7241C155.104 72.7961 156.7 72.7841 157.523 72.9641C161.814 73.8639 165.689 76.1511 168.551 79.4729C168.803 79.7609 169.05 80.0585 169.295 80.3609L169.424 80.5193C169.576 80.7089 169.736 80.9033 169.888 81.0977L169.996 81.2513C171.25 82.8888 172.404 84.6008 173.452 86.3777Z" fill="#373A40"/>
<path d="M69.877 44.398C71.2594 37.486 77.1297 30.7901 93.8961 29.2565C131.163 25.8509 111.018 15.5764 123.152 4.33245C135.287 -6.91155 181.167 11.5877 169.165 40.4789C157.163 69.3701 196.784 37.3036 213.565 73.8988C215.996 79.2093 217.166 85.0099 216.985 90.8477C216.773 97.0157 215.185 103.058 212.336 108.533C206.977 119.002 202.5 124.722 192 129C189.875 129.866 187.651 130.644 185.328 131.335" stroke="#7950F2" stroke-width="1.0848" stroke-miterlimit="10"/>
<path d="M187.928 101.245C187.638 104.636 185.339 105.188 185.339 105.188C183.395 106.337 180.409 105.101 179.807 102.946C179.798 102.923 179.793 102.899 179.792 102.874C179.312 101.029 178.377 98.6575 177.119 96.0631C174.695 90.1975 171.544 84.2839 167.502 79.6063C164.64 76.2847 160.765 73.9975 156.474 73.0975C156.46 73.0975 156.452 73.0831 156.438 73.0831C150.748 71.3695 147.978 67.8703 146.778 64.5151C146.778 64.5151 146.778 64.5151 146.778 64.5007C146.264 62.3815 145.741 60.3151 146.022 59.0647C146.502 56.8735 146.742 54.5047 146.145 54.0247C145.393 53.3959 144.035 53.8615 140.579 54.5575C137.586 55.1719 135.99 54.8239 135.63 52.9951C135.573 52.7114 135.544 52.4227 135.544 52.1335C135.529 52.3159 134.824 51.5911 134.79 51.7639C134.564 52.6975 134.113 53.0719 133.129 53.4823C131.668 54.0895 131.07 56.4343 130.854 57.9967C130.628 59.6599 131.377 61.9543 131.97 63.5167C131.212 62.6503 130.343 62.7511 128.985 63.2767C128.644 63.4063 127.784 63.3703 127.105 63.1327C127.201 63.0504 127.314 62.9904 127.436 62.9575C127.655 62.8855 126.071 62.0983 126.301 62.0479C128.608 61.5271 129.901 59.6047 129.628 57.9127C128.949 53.6527 129.853 48.6415 132.731 45.3223C135.904 41.6719 141.08 40.9135 145.463 42.5839C148.904 43.8919 152.159 46.5751 153.352 50.1535C153.352 50.1679 153.352 50.1823 153.366 50.1967C153.518 50.6517 153.634 51.118 153.714 51.5911C154.153 54.2527 153.215 56.9503 152.694 59.5807C152.507 60.5287 152.982 61.5631 153.083 62.3143C153.661 66.8263 158.869 68.1007 162.99 70.0159C171.652 74.0503 178.724 80.9479 183.481 89.3359C186.64 94.8895 187.768 98.6767 187.928 101.245Z" fill="#7950F2"/>
<path d="M142.266 75.187C142.172 75.2374 142.079 75.2878 141.992 75.3454C140.437 76.237 139.007 77.3314 137.739 78.5998C132.803 83.5462 129.903 92.6566 131.653 102.698L132.325 105.907" stroke="#141517" stroke-width="1.0848" stroke-miterlimit="10"/>
<path d="M185.946 142.565C185.947 135.068 185.299 127.586 184.009 120.201C183.146 115.191 181.958 110.242 180.452 105.386C179.547 102.437 178.441 99.2541 177.126 96.0597C175.904 93.0703 174.493 90.162 172.902 87.3525C171.358 84.6014 169.552 82.006 167.509 79.6029C164.647 76.2813 160.772 73.9939 156.481 73.0941C155.658 72.9196 154.825 72.7946 153.987 72.7197" stroke="#141517" stroke-width="1.0848" stroke-miterlimit="10"/>
<path d="M97.2372 77.3258L97.1148 77.3042C95.6491 77.0586 94.1453 77.1849 92.741 77.6711C91.3368 78.1576 90.077 78.9887 89.0772 80.0882L80.8692 89.0306L79.9092 90.0866C79.8494 90.1514 79.7933 90.2195 79.7412 90.2906" stroke="#141517" stroke-width="1.0848" stroke-miterlimit="10"/>
<path d="M85.3833 92.6251L89.8881 87.6283L89.8953 87.6211" stroke="#141517" stroke-width="1.0848" stroke-miterlimit="10"/>
<path d="M124.571 118.435L145.76 125.901C147.801 126.62 149.973 126.892 152.128 126.696C154.282 126.501 156.37 125.845 158.248 124.771C160.127 123.697 161.752 122.231 163.013 120.473C164.274 118.715 165.142 116.706 165.558 114.583L170.572 88.989C170.828 87.6748 170.816 86.3224 170.537 85.0127C170.257 83.7033 169.715 82.4639 168.944 81.369C168.729 81.0606 168.495 80.7657 168.244 80.4858" stroke="#141517" stroke-width="1.0848" stroke-miterlimit="10"/>
<path d="M110.548 117.403C107.85 119.225 105.868 124.757 104.814 128.388C104.633 128.997 104.26 129.531 103.751 129.91C103.241 130.289 102.622 130.493 101.987 130.49C101.557 130.49 101.132 130.397 100.741 130.217C100.142 129.935 99.6549 129.461 99.359 128.869C99.0628 128.277 98.9747 127.603 99.1091 126.955C100.873 118.329 107.099 101.301 128.485 105.055C128.912 105.127 129.347 105.206 129.786 105.295L132.325 105.907L139.446 107.642L141.366 108.105C142.094 108.282 142.858 108.255 143.572 108.026C143.616 108.017 143.659 108.005 143.701 107.99C144.359 107.765 144.949 107.377 145.417 106.862C145.884 106.348 146.215 105.724 146.377 105.048L147.997 98.3085L148.091 97.9173L150.212 89.1069" stroke="#141517" stroke-width="1.0848" stroke-miterlimit="10"/>
<path d="M100.117 89.7859H92.8593C92.0317 89.7859 91.2383 89.4571 90.6532 88.8722C90.0681 88.2871 89.7393 87.4934 89.7393 86.6659C89.7393 85.8384 90.0681 85.0449 90.6532 84.4598C91.2383 83.8747 92.0317 83.5459 92.8593 83.5459H103.141" stroke="#141517" stroke-width="1.0848" stroke-miterlimit="10"/>
<path d="M94.5466 89.7842C94.4434 91.0562 93.9586 91.997 93.2434 92.6474C91.4002 94.3274 88.0234 94.1354 85.6738 92.9858" stroke="#141517" stroke-width="1.0848" stroke-miterlimit="10"/>
<path d="M80.8789 89.0274C78.7981 86.5122 79.2229 83.1017 80.8381 80.4665C85.4197 72.9881 95.8885 74.4234 102.678 77.5314C108.179 80.0418 112.998 83.8145 117.69 87.5777C119.982 89.4161 122.233 91.3313 124.41 93.3377C124.81 93.6994 125.286 93.9658 125.804 94.1165C126.321 94.2675 126.866 94.2989 127.397 94.2089C127.928 94.1189 128.432 93.9094 128.871 93.5965C129.31 93.2835 129.672 92.875 129.93 92.4018C131.13 90.1866 132.428 87.7697 132.673 87.1001" stroke="#141517" stroke-width="1.0848" stroke-miterlimit="10"/>
<path d="M93.2461 92.647C93.2461 92.647 104.072 98.5198 112.115 106.958" stroke="#141517" stroke-width="1.0848" stroke-miterlimit="10"/>
<path d="M107.905 120.588C106.705 122.638 107.737 125.647 110.005 126.367C112.902 127.302 115.964 127.609 118.988 127.267C122.288 126.883 124.482 124.159 125.927 121.039C126.031 120.807 126.086 120.555 126.087 120.301C126.088 120.046 126.035 119.794 125.932 119.562C125.83 119.329 125.679 119.12 125.49 118.949C125.301 118.778 125.079 118.649 124.837 118.57C124.401 118.426 123.926 118.452 123.508 118.643C123.089 118.834 122.758 119.175 122.581 119.599C122.101 120.708 121.359 122.095 120.375 122.719" stroke="#141517" stroke-width="1.0848" stroke-miterlimit="10"/>
<path d="M113.557 120.204C113.557 120.204 110.593 123.391 112.931 126.766C113.034 126.908 113.155 127.035 113.291 127.145" stroke="#141517" stroke-width="1.0848" stroke-miterlimit="10"/>
<path d="M117.466 120.73C117.466 120.73 114.726 126.898 118.242 127.349" stroke="#141517" stroke-width="1.0848" stroke-miterlimit="10"/>
<path d="M214.775 142.57H45.0371" stroke="#141517" stroke-width="1.0848" stroke-miterlimit="10"/>
<path d="M111.812 130.946H94.8851C94.7133 132.544 93.9563 134.022 92.7599 135.095C91.5635 136.169 90.0124 136.761 88.4051 136.759H31.5107C31.5139 138.298 32.1266 139.773 33.2147 140.861C34.3027 141.949 35.7775 142.561 37.3163 142.565H111.812C113.354 142.564 114.832 141.953 115.924 140.865C117.015 139.776 117.631 138.3 117.637 136.759V132.857C117.637 132.347 117.435 131.859 117.075 131.499C116.715 131.139 116.226 130.937 115.717 130.937L111.812 130.946Z" stroke="#141517" stroke-width="1.0848" stroke-miterlimit="10"/>
<path d="M85.6741 92.9857C86.1728 93.6757 86.5316 94.4569 86.7301 95.2849L94.7485 128.727C94.9256 129.453 94.9719 130.204 94.8853 130.947C94.7134 132.544 93.9565 134.022 92.7601 135.096C91.5637 136.169 90.0126 136.762 88.4053 136.759H30.4549C28.9914 136.759 27.5703 136.266 26.4214 135.359C25.2723 134.453 24.4621 133.186 24.1213 131.763L16.1173 98.3233C15.8871 97.3657 15.8773 96.3688 16.0882 95.4069C16.2992 94.4449 16.7254 93.5435 17.3353 92.7702C17.9449 91.9969 18.722 91.372 19.6081 90.9426C20.4942 90.513 21.4662 90.2901 22.4509 90.2905H80.3965C81.3483 90.2886 82.2891 90.4969 83.1512 90.9006C84.0133 91.3043 84.7755 91.8933 85.3837 92.6257L85.6741 92.9857Z" stroke="#141517" stroke-width="1.0848" stroke-miterlimit="10"/>
<path d="M76.5972 51.3678C76.2276 50.9334 75.8388 50.5158 75.4332 50.1102C73.1573 47.8263 70.4525 46.0145 67.4744 44.7788C64.4962 43.5433 61.3032 42.9082 58.0788 42.9102H27.6996C24.4762 42.9087 21.284 43.5428 18.3056 44.7759C15.3272 46.009 12.6211 47.817 10.3419 50.0965C8.06262 52.376 6.25494 55.0822 5.02216 58.0606C3.78937 61.0393 3.15565 64.2313 3.15724 67.455V67.6302C3.15414 69.9171 3.73665 72.1671 4.84924 74.1654C6.09952 75.4386 7.59189 76.449 9.2385 77.1368C10.8851 77.8249 12.6527 78.1762 14.4372 78.171H44.2212C45.1301 78.171 46.0018 78.5319 46.6445 79.1746C47.2872 79.8174 47.6484 80.689 47.6484 81.5981C47.6496 82.5082 48.012 83.3804 48.656 84.0236C49.2999 84.6665 50.1728 85.0278 51.0828 85.0278H51.1572L58.5108 84.8405C58.5108 84.7686 58.4964 84.7038 58.4964 84.639C57.8607 84.4203 57.3092 84.0085 56.9189 83.4613C56.5287 82.9138 56.3192 82.2584 56.3196 81.5862V81.4278C56.3204 80.5189 56.6816 79.6477 57.324 79.0049C57.9668 78.3625 58.8382 78.001 59.7468 78.0005H66.9972C70.5617 78.0005 73.9803 76.5846 76.5008 74.0641C79.0212 71.5436 80.4372 68.125 80.4372 64.5606C80.4497 59.8856 79.1168 55.3057 76.5972 51.3678ZM23.9892 65.5878C22.8269 65.5882 21.6905 65.2438 20.724 64.5985C19.7573 63.9529 19.004 63.0351 18.559 61.9614C18.1143 60.8876 17.9979 59.7061 18.2247 58.5661C18.4515 57.4261 19.0112 56.379 19.8334 55.5572C20.6554 54.7354 21.7028 54.1762 22.8428 53.9497C23.9828 53.7234 25.1643 53.8402 26.238 54.2857C27.3116 54.7311 28.2288 55.4847 28.874 56.4517C29.5191 57.4184 29.863 58.555 29.862 59.7174C29.8601 61.274 29.2407 62.7665 28.1398 63.8669C27.0387 64.9676 25.5459 65.5863 23.9892 65.5878ZM43.158 65.5878C41.996 65.5873 40.86 65.2422 39.894 64.5961C38.928 63.95 38.1754 63.032 37.7314 61.958C37.2872 60.8842 37.1715 59.7027 37.3988 58.563C37.626 57.4234 38.1864 56.3768 39.0087 55.5555C39.8309 54.7342 40.878 54.1753 42.018 53.9494C43.158 53.7233 44.3393 53.8407 45.4126 54.2862C46.4859 54.7316 47.4032 55.4854 48.048 56.4522C48.6929 57.4189 49.0366 58.5553 49.0356 59.7174C49.0356 60.4887 48.8835 61.2526 48.588 61.9654C48.2926 62.6782 47.8596 63.3255 47.3136 63.8708C46.7679 64.4161 46.1199 64.8483 45.4068 65.1428C44.6938 65.4375 43.9296 65.5887 43.158 65.5878ZM61.4148 65.5878C60.2528 65.5868 59.1173 65.2412 58.1516 64.5949C57.1858 63.9486 56.4336 63.0303 55.9899 61.9563C55.5461 60.8825 55.4307 59.701 55.6582 58.5615C55.886 57.422 56.4464 56.3756 57.2686 55.5548C58.0911 54.7338 59.1382 54.175 60.2782 53.9492C61.418 53.7236 62.5992 53.8407 63.6725 54.2864C64.7456 54.7318 65.6626 55.4857 66.3072 56.4524C66.9521 57.4191 67.2958 58.5553 67.2948 59.7174C67.2948 60.489 67.1427 61.2531 66.847 61.9659C66.5516 62.679 66.1181 63.3265 65.5721 63.8718C65.0259 64.417 64.3776 64.849 63.6644 65.1435C62.9508 65.438 62.1864 65.589 61.4148 65.5878Z" fill="#D0BFFF"/>
<path d="M80.4371 64.5631C80.4371 68.1275 79.0211 71.5461 76.5006 74.0666C73.9801 76.5871 70.5616 78.0031 66.9971 78.0031H59.7515C58.8431 78.0035 57.9721 78.3645 57.3296 79.0067C56.6872 79.6487 56.3255 80.5195 56.3243 81.4279V81.5863C56.3238 82.2585 56.5333 82.9139 56.9236 83.4614C57.3138 84.0086 57.8653 84.4204 58.5011 84.6391C58.8359 84.7555 59.1882 84.8138 59.5427 84.8119L58.5155 84.8407L51.1571 85.0279H51.0779C50.1683 85.0279 49.2959 84.6669 48.652 84.0244C48.008 83.3819 47.6454 82.5103 47.6435 81.6007C47.6435 80.6915 47.2825 79.8199 46.6396 79.1772C45.9968 78.5344 45.1252 78.1735 44.2163 78.1735H14.4371C10.8726 78.1735 7.45405 76.7575 4.93355 74.237C2.41307 71.7165 0.99707 68.298 0.99707 64.7335V64.5583C0.997382 61.3367 1.63221 58.1472 2.86525 55.1709C4.0983 52.1949 5.90548 49.4908 8.18356 47.2132C10.4616 44.9356 13.166 43.1289 16.1423 41.8965C19.1185 40.6641 22.3086 40.0298 25.5299 40.0303H55.8995C62.4061 40.0308 68.6464 42.6155 73.2479 47.2161C77.8492 51.8167 80.4352 58.0562 80.4371 64.5631Z" stroke="#141517" stroke-width="1.0848" stroke-miterlimit="10"/>
<path d="M156.474 73.0868C156.46 73.0868 156.452 73.0724 156.438 73.0724C150.748 71.3588 147.978 67.8596 146.778 64.5044C146.778 64.5044 146.778 64.5044 146.778 64.49C145.84 61.874 145.861 59.342 146.2 57.83C146.402 57.0291 146.531 56.2114 146.584 55.3868C146.663 53.0516 144.949 53.6228 140.048 54.5996C137.797 55.0556 136.357 54.2012 135.637 52.9868C135.567 52.881 135.506 52.7694 135.455 52.6532C135.119 51.9464 134.98 51.1621 135.052 50.3828" stroke="#141517" stroke-width="1.0848" stroke-miterlimit="10"/>
<path d="M132.231 63.8328C132.145 63.7104 132.056 63.5928 131.97 63.4992C131.211 62.6328 130.343 62.7336 128.984 63.2592C128.643 63.3888 127.784 63.3528 127.105 63.1152C126.534 62.9112 126.107 62.5584 126.301 62.0304C126.351 61.9217 126.425 61.8261 126.518 61.7508C126.611 61.6754 126.72 61.6224 126.836 61.596C127.063 61.5389 127.292 61.493 127.523 61.4592C129.853 60.9384 129.332 58.2408 129.049 56.5488C128.363 52.2912 129.275 47.28 132.181 43.9608C135.383 40.3104 140.619 39.5496 145.043 41.22C148.933 42.6888 152.593 45.876 153.351 50.136C153.351 50.1504 153.351 50.1648 153.366 50.1792C153.38 50.1936 153.366 50.2152 153.366 50.2296C153.815 52.8912 153.366 55.776 152.845 58.4088C152.533 59.9688 152.651 61.2432 153.085 62.2968C154.446 65.7456 159.037 66.948 162.738 68.6544C171.495 72.6888 178.631 79.5864 183.44 87.9744C187.237 94.6272 188.137 98.7192 187.928 101.244C187.638 104.635 185.339 105.187 185.339 105.187C183.395 106.337 180.407 105.101 179.807 102.946C179.798 102.923 179.793 102.898 179.792 102.874C179.312 101.028 178.376 98.6568 177.119 96.0624" stroke="#141517" stroke-width="1.0848" stroke-miterlimit="10"/>
<path d="M135.042 50.3828C135.042 51.6668 134.437 52.934 133.122 53.474C131.643 54.0836 131.043 55.6892 130.827 57.2516C130.525 59.5395 131.018 61.8615 132.222 63.83C133.338 65.6828 135.155 67.7252 137.727 67.7252C142.441 67.7252 144.462 65.4524 144.462 65.4524" stroke="#141517" stroke-width="1.0848" stroke-miterlimit="10"/>
<path d="M139.935 57.989C140.378 57.989 140.737 57.6301 140.737 57.1873C140.737 56.7448 140.378 56.3857 139.935 56.3857C139.493 56.3857 139.134 56.7448 139.134 57.1873C139.134 57.6301 139.493 57.989 139.935 57.989Z" fill="#141517"/>
<path d="M132.884 58.4567C133.327 58.4567 133.686 58.0979 133.686 57.6551C133.686 57.2125 133.327 56.8535 132.884 56.8535C132.441 56.8535 132.083 57.2125 132.083 57.6551C132.083 58.0979 132.441 58.4567 132.884 58.4567Z" fill="#141517"/>
<path d="M136.343 56.4331C136.343 56.4331 135.942 59.5987 136.103 60.0331C136.263 60.4675 137.267 59.9707 137.267 59.9707" stroke="#141517" stroke-width="1.0848" stroke-miterlimit="10"/>
<path d="M137.828 62.7404C139.544 63.3716 141.315 62.5676 141.834 61.0244" stroke="#141517" stroke-width="1.0848" stroke-miterlimit="10"/>
<path d="M144.084 58.3454C145.248 56.6975 144.824 54.3954 143.136 53.2029C141.448 52.0106 139.137 52.3797 137.973 54.0275C136.809 55.6751 137.233 57.9774 138.921 59.1698C140.608 60.3621 142.92 59.993 144.084 58.3454Z" stroke="#141517" stroke-width="1.0848" stroke-miterlimit="10"/>
<path d="M134.711 58.817C135.875 57.1692 135.45 54.8669 133.763 53.6746C132.075 52.4822 129.763 52.8514 128.599 54.4992C127.435 56.1468 127.86 58.4491 129.547 59.6414C131.235 60.8338 133.547 60.4646 134.711 58.817Z" stroke="#141517" stroke-width="1.0848" stroke-miterlimit="10"/>
<path d="M131.588 54.1132C132.255 54.1112 132.897 54.3616 133.387 54.8137C133.877 55.2661 134.177 55.8868 134.228 56.5516C134.255 56.8818 134.215 57.214 134.11 57.5281C134.005 57.8423 133.838 58.1322 133.618 58.3804C133.396 58.6319 133.126 58.8359 132.823 58.9801C132.521 59.1246 132.192 59.2062 131.857 59.2204H131.722C131.056 59.2223 130.413 58.9717 129.923 58.5188C129.433 58.066 129.133 57.4446 129.082 56.7796C129.056 56.4493 129.097 56.1169 129.202 55.8028C129.307 55.4886 129.475 55.1987 129.694 54.9508C129.916 54.7 130.186 54.4964 130.489 54.352C130.791 54.2077 131.119 54.1256 131.454 54.1108H131.588V54.1132ZM131.588 53.5684H131.427C131.023 53.5864 130.626 53.6857 130.26 53.86C129.895 54.0344 129.568 54.2804 129.299 54.5836C129.031 54.8867 128.826 55.2407 128.697 55.6244C128.567 56.0082 128.517 56.414 128.547 56.818C128.612 57.6181 128.975 58.3645 129.565 58.9096C130.154 59.4546 130.927 59.7582 131.73 59.7604H131.89C132.295 59.7421 132.692 59.643 133.057 59.4685C133.423 59.2943 133.749 59.048 134.018 58.7452C134.287 58.442 134.492 58.088 134.621 57.7043C134.75 57.3205 134.801 56.9144 134.77 56.5108C134.705 55.7106 134.342 54.9642 133.753 54.4192C133.163 53.8741 132.391 53.5705 131.588 53.5684Z" fill="white"/>
<path d="M137.327 56.3828L135.359 56.4836" stroke="#141517" stroke-width="1.0848" stroke-miterlimit="10"/>
<path opacity="0.53" d="M143.616 58.0145C144.602 56.6192 144.243 54.6694 142.814 53.66C141.384 52.6505 139.427 52.9632 138.441 54.3586C137.455 55.7542 137.814 57.7037 139.243 58.7134C140.673 59.7228 142.63 59.4101 143.616 58.0145Z" fill="white"/>
<path opacity="0.53" d="M134.242 58.4863C135.228 57.0909 134.869 55.1412 133.44 54.1317C132.011 53.1221 130.053 53.435 129.067 54.8304C128.081 56.226 128.44 58.1755 129.87 59.1849C131.299 60.1946 133.256 59.8817 134.242 58.4863Z" fill="white"/>
<path d="M139.131 67.7256L143.502 78.108C143.502 78.108 151.933 80.376 153.983 72.3984" stroke="#141517" stroke-width="1.0848" stroke-miterlimit="10"/>
<path d="M56.2091 121.535C59.5098 120.495 61.2375 116.644 60.068 112.935C58.8985 109.226 55.2747 107.063 51.9743 108.104C48.6735 109.145 46.9458 112.995 48.1153 116.704C49.2846 120.413 52.9083 122.576 56.2091 121.535Z" fill="#D0BFFF"/>
<path d="M137.965 142.564C137.872 134.114 136.381 125.764 135.695 122.356" stroke="#141517" stroke-width="1.0848" stroke-miterlimit="10"/>
</svg>
