<svg width="32" height="32" viewBox="0 0 32 32" fill="none" xmlns="http://www.w3.org/2000/svg">
<path d="M16 18.6668C18.2092 18.6668 20 16.8759 20 14.6668C20 12.4576 18.2092 10.6668 16 10.6668C13.7909 10.6668 12 12.4576 12 14.6668C12 16.8759 13.7909 18.6668 16 18.6668Z" fill="#7950F2"/>
<path d="M23.5427 22.2094L17.8854 27.8668C17.3854 28.3663 16.7075 28.6469 16.0007 28.6469C15.2939 28.6469 14.6161 28.3663 14.116 27.8668L8.45738 22.2094C6.96567 20.7176 5.94983 18.817 5.5383 16.7479C5.12676 14.6788 5.33803 12.5341 6.14538 10.5851C6.95273 8.63602 8.31991 6.97015 10.074 5.79811C11.8281 4.62606 13.8904 4.00049 16 4.00049C18.1097 4.00049 20.172 4.62606 21.9261 5.79811C23.6802 6.97015 25.0474 8.63602 25.8547 10.5851C26.6621 12.5341 26.8733 14.6788 26.4618 16.7479C26.0503 18.817 25.0344 20.7176 23.5427 22.2094Z" fill="#7950F2"/>
<path d="M16 18.6668C18.2092 18.6668 20 16.8759 20 14.6668C20 12.4576 18.2092 10.6668 16 10.6668C13.7909 10.6668 12 12.4576 12 14.6668C12 16.8759 13.7909 18.6668 16 18.6668Z" stroke="white" stroke-width="2" stroke-linecap="round" stroke-linejoin="round"/>
<path d="M23.5427 22.2094L17.8854 27.8668C17.3854 28.3663 16.7075 28.6469 16.0007 28.6469C15.2939 28.6469 14.6161 28.3663 14.116 27.8668L8.45738 22.2094C6.96567 20.7176 5.94983 18.817 5.5383 16.7479C5.12676 14.6788 5.33803 12.5341 6.14538 10.5851C6.95273 8.63602 8.31991 6.97015 10.074 5.79811C11.8281 4.62606 13.8904 4.00049 16 4.00049C18.1097 4.00049 20.172 4.62606 21.9261 5.79811C23.6802 6.97015 25.0474 8.63602 25.8547 10.5851C26.6621 12.5341 26.8733 14.6788 26.4618 16.7479C26.0503 18.817 25.0344 20.7176 23.5427 22.2094Z" stroke="white" stroke-width="2" stroke-linecap="round" stroke-linejoin="round"/>
</svg>
